<?xml version="1.0" encoding="iso-8859-1"?>
<!-- Generator: Adobe Illustrator 19.0.0, SVG Export Plug-In . SVG Version: 6.00 Build 0)  -->
<svg version="1.1" id="Layer_1" xmlns="http://www.w3.org/2000/svg" xmlns:xlink="http://www.w3.org/1999/xlink" x="0px" y="0px"
	 viewBox="0 0 496 496" style="enable-background:new 0 0 496 496;" xml:space="preserve">
<path style="fill:#359846;" d="M0,304v65.6C0,396.8,21.6,416,48,416h400c26.4,0,48-19.2,48-46.4V304H0z"/>
<path style="fill:#EA8634;" d="M448,80H48C21.6,80,0,99.2,0,126.4V192h496v-65.6C496,99.2,474.4,80,448,80z"/>
<rect y="192" style="fill:#FCFBF0;" width="496" height="112"/>
<path style="fill:#21872F;" d="M446.4,416c26.4,0,49.6-19.2,49.6-46.4V304H315.2L446.4,416z"/>
<path style="fill:#E27423;" d="M448,80H48l132.8,112H496v-65.6C496,99.2,474.4,80,448,80z"/>
<polygon style="fill:#F7F4E2;" points="316,304 496,304 496,192 180,192 "/>
<path style="fill:#D86619;" d="M448,80H48l370.4,112H496v-65.6C496,99.2,474.4,80,448,80z"/>
<polygon style="fill:#F2E9C2;" points="496,214.4 496,192 414.4,192 "/>
<path style="fill:#167A20;" d="M496,368.8c0,28.8-21.6,47.2-48,47.2H48c-26.4,0-48-20.8-48-48"/>
<path style="fill:#7D7DBC;" d="M248,197.6c-28,0-50.4,22.4-50.4,50.4s22.4,50.4,50.4,50.4s50.4-22.4,50.4-50.4S276,197.6,248,197.6z
	 M289.6,253.6c0,0.8,0.8,2.4,1.6,2.4c-0.8,2.4-0.8,4.8-1.6,7.2c-0.8-0.8-2.4,0-3.2,0.8c-0.8,0.8,0,2.4,0.8,3.2
	c-0.8,2.4-2.4,4-3.2,6.4c-0.8-0.8-2.4-0.8-3.2,0.8c-0.8,0.8-0.8,2.4,0,3.2c-0.8,0.8-1.6,1.6-2.4,2.4l-17.6-20l-7.2-5.6l0.8-0.8
	l7.2,5.6l23.2,12l-20.8-16l-8-3.2c0-0.8,0-0.8,0.8-1.6l8,3.2l25.6,5.6l-24.8-8l-8.8-1.6c0-0.8,0-0.8,0-1.6l8.8,0.8l26.4-1.6
	l-26.4-1.6l-8.8,0.8c0-0.8,0-0.8,0-1.6l8.8-1.6l24.8-8l-25.6,5.6l-8,3.2c0-0.8,0-0.8-0.8-1.6l8-3.2l22.4-14.4l-23.2,12l-7.2,5.6
	l-0.8-0.8l7.2-5.6l17.6-20c0.8,0.8,1.6,1.6,2.4,2.4c-0.8,0.8-0.8,2.4,0,3.2s2.4,0.8,3.2,0.8c1.6,1.6,2.4,4,3.2,6.4
	c-0.8,0.8-1.6,1.6-0.8,3.2c0.8,0.8,1.6,1.6,3.2,0.8c0.8,2.4,1.6,4.8,1.6,7.2c-0.8,0-1.6,1.6-1.6,2.4c0,0.8,1.6,2.4,2.4,1.6
	c0,0.8,0,2.4,0,3.2s0,2.4,0,3.2C290.4,251.2,289.6,252,289.6,253.6z M220,214.4c0.8,0.8,2.4,0.8,3.2,0s0.8-2.4,0.8-3.2
	c1.6-1.6,4-2.4,6.4-3.2c0.8,0.8,1.6,1.6,3.2,0.8c0.8-0.8,1.6-1.6,0.8-3.2c2.4-0.8,4.8-1.6,7.2-1.6c0,0.8,1.6,1.6,2.4,1.6
	c0.8,0,2.4-1.6,1.6-2.4c0.8,0,2.4,0,3.2,0c0.8,0,2.4,0,3.2,0c0,0.8,0.8,2.4,1.6,2.4c0.8,0,2.4-0.8,2.4-1.6c2.4,0.8,4.8,0.8,7.2,1.6
	c-0.8,0.8,0,2.4,0.8,3.2s2.4,0,3.2-0.8c2.4,0.8,4,2.4,6.4,3.2c-0.8,0.8-0.8,2.4,0.8,3.2c0.8,0.8,2.4,0.8,3.2,0
	c0.8,0.8,1.6,1.6,2.4,2.4l-20,17.6l-5.6,7.2l-0.8-0.8l5.6-7.2l12-23.2l-16,21.6l-3.2,8c-0.8,0-0.8,0-1.6-0.8l3.2-8l5.6-25.6l-8,24.8
	l-1.6,8.8c-0.8,0-0.8,0-1.6,0l0.8-8.8L248,204l-1.6,26.4l0.8,8.8c-0.8,0-0.8,0-1.6,0l-1.6-8.8l-8-24.8l5.6,25.6l3.2,8
	c-0.8,0-0.8,0-1.6,0.8l-3.2-8l-14.4-22.4l12,23.2l5.6,7.2l-0.8,0.8l-5.6-7.2l-20-17.6C217.6,216,218.4,215.2,220,214.4z
	 M216.8,279.2c-0.8-0.8-1.6-1.6-2.4-2.4c0.8-0.8,0.8-2.4,0-3.2c-0.8-0.8-2.4-0.8-3.2-0.8c-1.6-1.6-2.4-4-3.2-6.4
	c0.8-0.8,1.6-1.6,0.8-3.2c-0.8-0.8-1.6-1.6-3.2-0.8c-0.8-2.4-1.6-4.8-1.6-7.2c0.8,0,1.6-1.6,1.6-2.4s-1.6-2.4-2.4-1.6
	c0-0.8,0-2.4,0-3.2s0-2.4,0-3.2c0.8,0,2.4-0.8,2.4-1.6s-0.8-2.4-1.6-2.4c0.8-2.4,0.8-4.8,1.6-7.2c0.8,0.8,2.4,0,3.2-0.8
	s0-2.4-0.8-3.2c0.8-2.4,2.4-4,3.2-6.4c0.8,0.8,2.4,0.8,3.2-0.8s0.8-2.4,0-3.2c0.8-0.8,1.6-1.6,2.4-2.4l17.6,20l7.2,5.6l-0.8,0.8
	l-7.2-5.6l-23.2-12l22.4,14.4l8,3.2c0,0.8,0,0.8-0.8,1.6l-8-3.2l-25.6-5.6l24.8,8l8.8,1.6c0,0.8,0,0.8,0,1.6l-8.8-0.8L204,248
	l26.4,1.6l8.8-0.8c0,0.8,0,0.8,0,1.6l-8.8,1.6l-24.8,8l25.6-5.6l8-3.2c0,0.8,0,0.8,0.8,1.6l-8,3.2l-22.4,14.4l23.2-12l7.2-5.6
	l0.8,0.8l-7.2,5.6L216.8,279.2z M244.8,292c0-0.8-0.8-2.4-1.6-2.4s-2.4,0.8-2.4,1.6c-2.4-0.8-4.8-0.8-7.2-1.6c0.8-0.8,0-2.4-0.8-3.2
	s-2.4,0-3.2,0.8c-2.4-0.8-4-2.4-6.4-3.2c0.8-0.8,0.8-2.4-0.8-3.2c-0.8-0.8-2.4-0.8-3.2,0c-0.8-0.8-1.6-1.6-2.4-2.4l20-17.6l5.6-7.2
	l0.8,0.8l-5.6,7.2l-12,23.2l14.4-22.4l3.2-8c0.8,0,0.8,0,1.6,0.8l-3.2,8l-5.6,25.6l8-24.8l1.6-8.8c0.8,0,0.8,0,1.6,0l-0.8,8.8
	l1.6,26.4l1.6-26.4l-0.8-8.8c0.8,0,0.8,0,1.6,0l1.6,8.8l8,24.8l-5.6-25.6l-3.2-8c0.8,0,0.8,0,1.6-0.8l3.2,8l14.4,22.4l-12-23.2
	l-5.6-7.2l0.8-0.8l5.6,7.2l20,17.6c-0.8,0.8-1.6,1.6-2.4,2.4c-0.8-0.8-2.4-0.8-3.2,0c-0.8,0.8-0.8,2.4-0.8,3.2
	c-1.6,1.6-4,2.4-6.4,3.2c-0.8-0.8-1.6-1.6-3.2-0.8s-1.6,1.6-0.8,3.2c-2.4,0.8-4.8,1.6-7.2,1.6c0-0.8-1.6-1.6-2.4-1.6
	s-2.4,1.6-1.6,2.4c-0.8,0-2.4,0-3.2,0S245.6,292,244.8,292z"/>
<g>
	<polygon style="fill:#6060B2;" points="259.2,257.6 261.6,260 261.6,259.2 	"/>
	<path style="fill:#6060B2;" d="M248,197.6c-15.2,0-28.8,7.2-38.4,17.6l4.8,4c0.8-0.8,1.6-1.6,2.4-2.4c0.8-0.8,1.6-1.6,2.4-2.4
		c0.8,0.8,2.4,0.8,3.2,0s0.8-2.4,0.8-3.2c0.8-0.8,2.4-0.8,3.2-1.6l12,23.2l5.6,7.2l-0.8,0.8l-5.6-7.2l-20-17.6l16.8,19.2l2.4,1.6
		l4.8,4l0,0l13.6,11.2l0.8-0.8l7.2,5.6l23.2,12c-0.8,0.8-0.8,2.4-1.6,3.2c-0.8-0.8-2.4-0.8-3.2,0.8c-0.8,0.8-0.8,2.4,0,3.2l0,0
		l4.8,4c7.2-8.8,12-20,12-32.8C298.4,220,276,197.6,248,197.6z M244,240l-3.2-8l-14.4-21.6c0.8-0.8,1.6-1.6,3.2-1.6
		c0.8,0.8,1.6,1.6,3.2,0.8c0.8-0.8,1.6-1.6,0.8-3.2c0.8,0,2.4-0.8,3.2-0.8l5.6,25.6l3.2,8C244.8,240,244.8,240,244,240z
		 M248.8,239.2l0.8-8.8L248,204l-1.6,26.4l0.8,8.8c-0.8,0-0.8,0-1.6,0l-1.6-8.8l-8-24.8c0.8,0,2.4-0.8,3.2-0.8
		c0,0.8,1.6,1.6,2.4,1.6c0.8,0,2.4-1.6,1.6-2.4c0.8,0,2.4,0,3.2,0s2.4,0,3.2,0c0,0.8,0.8,2.4,1.6,2.4c0.8,0,2.4-0.8,2.4-1.6
		c0.8,0,2.4,0.8,3.2,0.8l-8,24.8l-1.6,8.8C249.6,239.2,248.8,239.2,248.8,239.2z M250.4,240l3.2-8l5.6-25.6c0.8,0,2.4,0.8,3.2,0.8
		c-0.8,0.8,0,2.4,0.8,3.2s2.4,0,3.2-0.8c0.8,0.8,2.4,0.8,3.2,1.6L255.2,232l-3.2,8C251.2,240,251.2,240,250.4,240z M286.4,264
		c-0.8,0.8,0,2.4,0.8,3.2c-0.8,0.8-0.8,2.4-1.6,3.2L264,255.2l-8-3.2c0-0.8,0-0.8,0.8-1.6l8,3.2l25.6,5.6c0,0.8-0.8,2.4-0.8,3.2
		C288,262.4,287.2,263.2,286.4,264z M292,244.8c0,0.8,0,2.4,0,3.2c0,0.8,0,2.4,0,3.2c-0.8,0-2.4,0.8-2.4,1.6c0,0.8,0.8,2.4,1.6,2.4
		c0,0.8-0.8,2.4-0.8,3.2l-24.8-8l-8.8-1.6c0-0.8,0-0.8,0-1.6l8.8,0.8l26.4-1.6l-26.4-1.6l-8.8,0.8c0-0.8,0-0.8,0-1.6l8.8-1.6l24.8-8
		c0,0.8,0.8,2.4,0.8,3.2c-0.8,0-1.6,1.6-1.6,2.4C289.6,244,290.4,244.8,292,244.8z M286.4,232c0.8,0.8,1.6,1.6,3.2,0.8
		c0,0.8,0.8,2.4,0.8,3.2l-25.6,5.6l-8,3.2c0-0.8,0-0.8-0.8-1.6l8-3.2l21.6-14.4c0.8,0.8,1.6,1.6,1.6,3.2
		C286.4,229.6,285.6,231.2,286.4,232z M285.6,226.4l-23.2,12l-7.2,5.6l-0.8-0.8l7.2-5.6l17.6-20l-20,17.6l-5.6,7.2l-0.8-0.8l5.6-7.2
		l12-23.2c0.8,0.8,2.4,0.8,3.2,1.6c-0.8,0.8-0.8,2.4,0.8,3.2c0.8,0.8,2.4,0.8,3.2,0c0.8,0.8,1.6,1.6,2.4,2.4s1.6,1.6,2.4,2.4
		c-0.8,0.8-0.8,2.4,0,3.2s2.4,0.8,3.2,0.8C284.8,224,285.6,224.8,285.6,226.4z"/>
</g>
<g>
</g>
<g>
</g>
<g>
</g>
<g>
</g>
<g>
</g>
<g>
</g>
<g>
</g>
<g>
</g>
<g>
</g>
<g>
</g>
<g>
</g>
<g>
</g>
<g>
</g>
<g>
</g>
<g>
</g>
</svg>
